<svg preserveAspectRatio="none" width="100%" height="100%" overflow="visible" style="display: block;" viewBox="0 0 34.5 35" fill="none" xmlns="http://www.w3.org/2000/svg">
<g id="Bubble/Reaction">
<circle id="White Line" cx="15.5" cy="15.5" r="15" stroke="var(--stroke-0, white)"/>
<path id="Union" d="M32 30C30.6193 30 29.5 31.1193 29.5 32.5C29.5 33.8807 30.6193 35 32 35C33.3807 35 34.5 33.8807 34.5 32.5C34.5 31.1193 33.3807 30 32 30ZM15.5 1C7.49187 1 1 7.49187 1 15.5C1 23.5081 7.49187 30 15.5 30C17.4298 30 19.271 29.6218 20.9551 28.9375C21.864 30.187 23.3366 31 25 31C27.7614 31 30 28.7614 30 26C30 24.5157 29.3533 23.1823 28.3262 22.2666C29.3942 20.2464 30 17.9441 30 15.5C30 7.49187 23.5081 1 15.5 1Z" fill="var(--fill-0, #E9E9EB)"/>
<path id="Heart" d="M22.5322 10.8345C21.904 9.59598 20.0943 8.58264 17.9893 9.17263C16.9835 9.45174 16.1059 10.0503 15.4999 10.8705C14.8939 10.0503 14.0163 9.45174 13.0105 9.17263C10.9008 8.59164 9.09583 9.59598 8.46761 10.8345C7.58623 12.5685 7.95191 14.5186 9.55527 16.6309C10.8117 18.2837 12.6073 19.9591 15.2139 21.9048C15.2963 21.9665 15.3978 22 15.5022 22C15.6067 22 15.7082 21.9665 15.7906 21.9048C18.3925 19.9636 20.1928 18.3017 21.4492 16.6309C23.0479 14.5186 23.4136 12.5685 22.5322 10.8345V10.8345Z" fill="var(--fill-0, #F85D96)"/>
</g>
</svg>
